<svg preserveAspectRatio="none" overflow="visible" style="display: block;" width="10.6667" height="10.6667" viewBox="0 0 10.6667 10.6667" fill="none" xmlns="http://www.w3.org/2000/svg">
<path id="Icon" d="M1.36973 1.33623e-06C1.23513 -1.46216e-05 1.10404 -3.01639e-05 0.993027 0.00904021C0.871113 0.0190011 0.727257 0.0425038 0.582501 0.116262C0.381799 0.218527 0.218622 0.381706 0.116359 0.582412C0.0426022 0.727171 0.0191 0.871029 0.00913923 0.992945C6.90109e-05 1.10396 8.45511e-05 1.23505 0.000100509 1.36965L5.28267e-05 2.34042C-0.000217694 2.44171 -0.000558276 2.56925 0.0295734 2.69476C0.0557028 2.8036 0.0987999 2.90765 0.157283 3.00308C0.224724 3.11314 0.315147 3.20308 0.386957 3.27451L3.73208 6.62339C3.75704 7.79228 3.73336 8.96414 3.73336 10.1333C3.73336 10.349 3.8633 10.5435 4.06259 10.6261C4.26188 10.7086 4.49127 10.663 4.6438 10.5104L6.7771 8.37711C6.87711 8.27709 6.9333 8.14144 6.9333 7.99999C6.9333 7.54057 6.93468 6.62147 6.93468 6.62147L10.2797 3.27451C10.3515 3.20309 10.4419 3.11314 10.5094 3.00308C10.5679 2.90765 10.611 2.8036 10.6371 2.69476C10.6672 2.56925 10.6669 2.44171 10.6666 2.34042L10.6666 1.36965C10.6666 1.23507 10.6666 1.10394 10.6575 0.992945C10.6476 0.871029 10.6241 0.727171 10.5503 0.582412C10.448 0.381706 10.2849 0.218527 10.0842 0.116262C9.93941 0.0425038 9.79555 0.0190011 9.67364 0.00904021C9.56262 -3.03258e-05 9.43154 -1.46219e-05 9.29694 1.33623e-06H1.36973Z" fill="#8E99AA"/>
</svg>
